<svg xmlns="http://www.w3.org/2000/svg" viewBox="0 0 32 32" width="32" height="32">
  <style>
    .maintenance-icon { fill: #03c39d; }
    .maintenance-bg { fill: #2f2e41; }
    @media (prefers-color-scheme: dark) {
      .maintenance-icon { fill: #03c39d; }
      .maintenance-bg { fill: #ffffff; }
    }
  </style>
  <circle cx="16" cy="16" r="15" class="maintenance-bg" opacity="0.1"/>
  <path class="maintenance-icon" d="M12 8c-1.1 0-2 .9-2 2v3c0 .55.45 1 1 1s1-.45 1-1v-3h8v3c0 .55.45 1 1 1s1-.45 1-1v-3c0-1.1-.9-2-2-2H12zm-1 8c-.55 0-1 .45-1 1v5c0 1.1.9 2 2 2h8c1.1 0 2-.9 2-2v-5c0-.55-.45-1-1-1s-1 .45-1 1v5H13v-5c0-.55-.45-1-1-1z"/>
  <circle cx="16" cy="20" r="2" class="maintenance-icon"/>
</svg> 